<?xml version="1.0" encoding="UTF-8"?>
<svg id="Layer_2" data-name="Layer 2" xmlns="http://www.w3.org/2000/svg" viewBox="0 0 3204.41 1191.49">
  <defs>
    <style>
      .cls-1 {
        stroke-width: 0px;
      }
    </style>
  </defs>
  <g id="Layer_3" data-name="Layer 3">
    <g>
      <path class="cls-1" d="m685.69,865.59c-10.49,5.6-20.99,11.17-31.46,16.82-4,2.16-8.12,3.34-12.75,3.3-12.83-.11-22.46-7.19-25.68-19.19-3.04-11.33,1.78-23.24,12.45-29.24,13.19-7.42,26.62-14.42,39.94-21.62,5.89-3.18,6.03-3.54,1.17-8.11-11.3-10.61-24.97-11.97-39.36-9.28-19.33,3.61-37.61,10.18-55.54,18.45-29.2,13.46-59.91,22.4-91.98,26.19-35.85,4.23-68.77-4.49-99.79-22.19-16.49-9.41-31.69-20.6-45.87-33.06-13.16-11.56-23.89-25.47-33.67-39.96-6.79-10.05-13.89-19.82-21.37-29.35-8.79-11.21-14.86-23.91-19.17-37.38-5.11-16.01,1.6-29.19,16.2-32.85,9.04-2.27,18.23,1.37,24.22,9.7,17.02,23.7,33.6,47.74,51.13,71.06,20.31,27.02,47.04,45.86,78.68,57.48,21.82,8.01,44,6.5,66.18.86,22.3-5.66,44.13-12.48,64.77-22.9,17.79-8.98,37.13-13.3,56.51-17.26,3.48-.71,4.94-2.02,5.83-5.6,5.03-20.31,16.31-37.42,28.74-53.79,9.52-12.54,21.02-23.14,33.82-32.57-16.69,5.34-33.72,6.9-50.95,5.87-27.51-1.64-51.21-11.52-69.03-33.3-9.09-11.11-7.34-26.73,3.84-36.33,10.43-8.95,26.99-7.8,36.07,2.93,8.46,9.99,19.47,13.91,31.99,14.64,27.56,1.6,50.85-8.49,71.09-26.47,6.98-6.2,12.29-13.8,16.62-22.1,1.68-3.23,1.24-5.08-2.45-6.4-25.42-9.08-43.25-27.4-56.99-49.53-11.52-18.56-14.55-46.21.66-65.41,8.45-10.66,19.92-15.86,32.34-18.18,27.23-5.08,54.57-11.12,82.45-9.56,27.07,1.52,50.02,11.94,64.5,36.55,9.53,16.18,9.19,32.48.67,48.82-10.23,19.61-26.07,34.09-43.54,47.03-5.16,3.82-10.42,7.52-16.33,10.08-2.54,1.1-3.21,2.19-1.7,4.78,5.09,8.78,10.04,17.64,14.92,26.53,2.92,5.31,7.33,7.49,13.25,7.06,2.49-.18,5-.4,7.48-.27,23.02,1.14,38.44-11.13,51.02-28.62,11.7-16.27,22.52-33.01,27.54-52.73,3.86-15.18,7.5-30.44,7.15-46.25-.22-10.03-2.19-19.62-6.89-28.77-6.59-12.83-12.57-25.92-21.58-37.39-4.76-6.06-11.12-10.53-15.52-16.9-1.91-2.76-4.28-.27-6.14.63-13.43,6.51-26.39,4.57-38.79-2.48-11.06-6.28-17.07-22.44-14.35-36.02,1.4-6.98,3.76-13.38,8.95-18.41,4.22-4.08,7.01-9.46,11.91-12.9,10.23-7.19,21.37-5.15,32.45-3.08,6,1.12,6.06,1.3,5.05-4.79-11.72-70.19-42.36-130.39-95.78-177.97-41-36.52-89.25-58.54-143.17-68.62-26.6-4.97-53.44-6.5-80.29-4.96-47.32,2.72-92.69,14.21-136.07,33.41-47.54,21.04-90.2,49.39-127.87,85.22-6.32,6.01-12.32,12.37-18.62,18.41-2.78,2.68-2.76,4.31.78,6.29,10.19,5.7,18.92,13.28,26.94,21.72,10.3,10.82,10.46,26.89.27,37.05-10.19,10.17-27.19,10.29-37.42-.49-12.46-13.14-27.16-21.44-45.35-22.04-24.38-.8-46.35,15.04-56.19,39.6-14.1,35.2,1.06,77.66,33.72,94.26,7.69,3.91,15.85,6.22,24.56,6.51,13.98.47,25.6,12.9,25.21,26.74-.39,13.74-12.17,25.44-26.02,25.26-24.94-.32-46.93-9.08-66.58-24.13-.85-.65-1.68-1.33-2.46-2.05-2.45-2.27-3.87-2.4-4.91,1.42-9.21,33.82-21.55,66.69-30.57,100.6-8.46,31.79-19.65,62.85-27.09,94.93-6.38,27.52-12.4,55.17-16.35,83.15-3.1,21.98-4.36,44.21-6.91,66.28-2.05,17.76-2.3,35.55-1.96,53.35,1.21,62.58,11.65,123.24,39.29,180,13.9,28.56,31.12,55.19,48.99,81.43,15.35,22.55,30.87,44.92,48.89,65.44,7.86,8.95,15.75,17.88,23.88,26.57,6.95,7.43,8.72,18.1,3.99,27.16-4.86,9.32-16.21,14.47-27.35,12.32-11.51-2.22-19.85-9.84-27.21-17.92-47.19-51.8-85.92-109.59-117.71-171.85-20.19-39.53-32.23-81.99-38.65-126.02-5.31-36.4-7.24-72.98-6.04-109.66.61-18.8,3.19-37.54,4.91-56.3,1.44-15.75,2.79-31.53,5.58-47.09,5.64-31.49,11.16-63.06,19.69-93.91,11.52-41.65,23.41-83.22,36.15-124.51,7.18-23.28,14.53-46.51,21.88-69.74,3.98-12.59,5.54-25.73,9.71-38.23.64-1.92-.09-3.84-.51-5.77-8.49-38.81-2.29-74.8,22.03-106.64,18.54-24.28,43.29-38.74,73.89-42.32,5.62-.66,9.42-2.84,13.18-7.31,22.45-26.65,47.61-50.51,75.11-71.96,46.69-36.41,98.04-63.96,154.53-81.74,28.23-8.89,57.08-14.66,86.55-17.87C542.81,0,562.57-.46,582.27.42c75.66,3.4,144.66,26.36,204.68,73.3,69.07,54.02,109.82,125.46,127,210.83,4.99,24.81,7.33,49.96,6.98,75.3-.04,3.22.83,5.89,2.67,8.45,7.07,9.84,14.1,19.72,19.13,30.81,1.19,2.62,2.76,2.78,5.11,1.81,20.1-8.2,40.37-15.99,60.28-24.65,14.15-6.15,29.56-1.69,36.12,11.59,6.47,13.1,1.07,27.97-12.63,35.21-12.97,6.86-27.24,10.45-40.59,16.36-8.62,3.82-17.39,7.31-26.16,10.79-2.86,1.13-4.01,2.46-3.7,5.88.54,6.19.31,12.47.19,18.7-.05,2.99.75,4.28,4.07,4.77,21.18,3.14,42.52,3.7,63.86,4.43,5.86.2,11.82.12,17.54,1.2,11.42,2.14,19.87,13.36,19.82,25.28-.06,12.1-8.4,22.58-19.9,25.31-6.36,1.51-12.8,1.2-19.16.81-24.29-1.5-48.68-1.8-72.74-5.98-3.49-.61-4.72,1.29-5.63,4.16-7.78,24.51-22.25,45.29-37.22,65.71-13.7,18.69-32.82,30.21-54.14,39.61,3.04,2.45,5.99,4.82,8.94,7.19,1.46,1.18,2.93.76,4.52.18,66.83-24.24,133.53,20.18,149.22,84.13,9,36.67,3.17,70.7-18.81,101.52-13.08,18.33-30.52,31.26-51.92,38.54-3.77,1.28-5.42,3.45-6.74,7.21-16.71,47.7-43.89,86.1-92.17,107.13-27.26,11.87-55.27,18.57-84.76,18.9-26.72.29-52.87-3.79-77.62-14.44-15.41-6.63-31.62-8.41-48.05-7.91-7.07.22-13.81,3.39-20.07,6.87-23.96,13.31-45.86,29.38-65.03,49.07-15.44,15.86-32.71,29.6-53.51,37.32-31.04,11.52-62.86,18.49-96.65,15.5-34.41-3.04-66.1-13.13-95.69-30.5-16.51-9.69-30.61-22.04-41.4-37.97-4.54-6.7-10.82-11.81-16.06-17.87-7.56-8.76-9.48-18.77-4.47-29.3,4.71-9.88,13.08-14.86,24.06-14.82,6.24.03,11.94,2.21,16.47,6.62,7.14,6.97,14.62,13.74,20.1,22.13,12.84,19.68,32.19,30.37,53.07,38.75,21.04,8.45,43.13,12.87,65.78,11.36,26.32-1.75,51.78-7.52,74-22.92,7.63-5.29,14.14-11.93,20.7-18.49,21.55-21.58,46.03-39.29,72.56-54.19,15.65-8.79,33.07-13.12,50.01-18.4,9.17-2.86,16.57-7.45,22.32-14.66,10.49-13.14,16.56-28.35,20.22-44.56-.39-.32-.78-.63-1.17-.95Zm77.67,86.76c7.1-.2,14.18-.27,21.3-1.01,24.92-2.59,47.05-12.35,67.52-26.04,17.25-11.53,26.3-29.58,35.41-47.41,1.39-2.72.42-3.53-2.3-4.33-23.75-7-43.58-20.04-58.87-39.56-22.98-29.32-31.39-62.53-25.54-99.29,2.9-18.25,10.37-34.67,21.07-49.62,2.04-2.85,1.95-4.17-1.63-4.87-4.01-.79-7.96-1.86-11.97-2.63-13.62-2.64-27.32-5.77-41.17-2.2-40.67,10.48-70.49,34.33-88.52,72.56-1.41,3-.49,3.98,2.16,5.05,8.86,3.59,16.52,9.09,23.45,15.59,24.8,23.25,32.78,53.36,34.64,85.83,1.81,31.6-10.8,58.66-27.41,84.29-2.16,3.33-1.88,4.11,1.63,5.39,16.24,5.95,32.95,8.83,50.25,8.25Zm90.96-215.59c3.27-.46,6.06-.84,8.85-1.25,10.19-1.5,20.34-3.68,30.58-4.34,12.47-.79,24.76,10.45,25.91,22.43,1.42,14.74-7.39,27-21.24,29.29-11.56,1.91-23.14,3.73-34.75,5.31-3.84.52-4.08,1.93-2.36,4.84,4.97,8.39,11.36,15.45,19.26,21.19,26.02,18.89,61.45,13.44,79.44-12.47,13.69-19.72,15.64-41.11,8.11-63.6-10.43-31.12-41.08-50.03-71.12-43.92-20.27,4.12-39.01,22.57-42.67,42.53Zm-78.3-273.69c-9.25.15-18.34,1.66-27.45,3.15-10.15,1.66-20.39,2.82-30.55,4.42-6.43,1.01-7.22,3.15-3.42,8.46,1.65,2.31,3.64,4.38,5.26,6.71,7.85,11.34,18.88,18.1,31.78,22.1,4.8,1.49,9.6,2.13,14.42-.63,13.61-7.8,25.12-17.93,34.69-30.34,2.79-3.63,1.68-6.04-1.79-8.22-7.03-4.42-14.73-5.98-22.93-5.65Zm-37.59,165.72c8.63-2.75,17.5-4.31,26.71-6.23-2.24-3.37-4.32-6.22-6.1-9.25-1.54-2.62-2.84-2.05-4.43-.16-4.83,5.74-10.8,10.29-16.18,15.65Z"/>
      <path class="cls-1" d="m501.75,531.4c-.43,13.52-10.25,23.34-23.78,25.01-5.97.73-11.68-.26-17.5-.35-39.47-.61-76.91,7.24-111.81,26.23-7.64,4.16-15.53,7.93-23.5,11.41-9.1,3.98-20.23,1.15-26.19-6.12-6.67-8.14-7.5-19.19-1.7-27.76,6.41-9.46,15.13-16.66,24.84-22.31,25.8-15.02,53.74-24.16,83.11-29.2,14.2-2.43,28.5-3.93,42.83-5.09,11.41-.92,22.76,1.04,33.99,2.47,11.69,1.49,20.09,13.61,19.71,25.72Z"/>
      <path class="cls-1" d="m501.01,568.24c12.68,0,22.93,7.64,25.92,18.92,3.13,11.82-1.87,23.82-13.08,29.81-13.03,6.96-26.04,13.91-38.65,21.61-17.83,10.89-33.9,24.11-50.15,37.13-4.98,4-10.38,7.5-15.74,11-8.59,5.6-20.69,4.34-28.15-2.72-7.66-7.25-9.52-18.96-4.04-28.39,6.6-11.35,15.42-20.8,25.6-29.08,26.62-21.65,55.38-39.94,86.06-55.25,4.06-2.02,8.19-3.47,12.24-3.02Z"/>
      <path class="cls-1" d="m563.51,387.67c.14,26.13-16.71,40.47-36.34,44.17-28.43,5.36-46.67-14.05-51.24-29.94-3.57-12.42-1.16-24.26,5.68-35.16,7.03-11.2,15.29-20.75,28.82-24.64,19.78-5.68,39.46,3.09,47.35,22.22,3.16,7.66,6.75,15.4,5.72,23.34Z"/>
      <path class="cls-1" d="m209.88,254.83c6.09.41,14.76,2.5,22.88,6.17,8.64,3.9,12.64,11.54,14.7,20.47,3.22,13.93,1.96,27-9.51,36.68-13.76,11.61-26.84,14.14-42.93,6.44-6.33-3.03-11.9-7.05-17.17-11.64-15.18-13.23-13.2-40.11,3.87-50.92,8.2-5.19,15.14-7.16,28.17-7.19Z"/>
    </g>
    <g>
      <path class="cls-1" d="m1529.09,239.77c26.89,0,52.73,3.52,77.54,10.53,24.8,7.02,48.03,16.81,69.69,29.36,21.66,12.55,41.38,27.79,59.16,45.72,17.77,17.93,33.01,37.65,45.72,59.16,12.7,21.51,22.56,44.75,29.58,69.69,7.02,24.95,10.53,50.87,10.53,77.76,0,40.34-7.7,78.14-23.08,113.39-15.39,35.26-36.3,66.11-62.75,92.55s-57.37,47.28-92.78,62.52c-35.41,15.24-73.28,22.86-113.62,22.86-26.89,0-52.82-3.44-77.76-10.31-24.95-6.87-48.18-16.65-69.69-29.36-21.51-12.7-41.09-27.94-58.71-45.72-17.63-17.77-32.72-37.42-45.27-58.94-12.55-21.51-22.26-44.67-29.13-69.47-6.88-24.8-10.31-50.65-10.31-77.54s3.43-52.81,10.31-77.76c6.87-24.95,16.58-48.18,29.13-69.69,12.55-21.51,27.63-41.23,45.27-59.16,17.63-17.93,37.2-33.17,58.71-45.72,21.51-12.55,44.67-22.33,69.47-29.36,24.8-7.02,50.79-10.53,77.99-10.53Zm0,77.54c-29.58,0-57.37,5.6-83.36,16.81-26,11.2-48.63,26.6-67.9,46.16-19.27,19.57-34.51,42.35-45.72,68.35-11.2,26-16.81,53.78-16.81,83.36s5.6,57.82,16.81,83.81c11.21,26,26.44,48.63,45.72,67.9,19.27,19.27,41.91,34.51,67.9,45.72,26,11.2,53.78,16.81,83.36,16.81s57.44-5.6,83.59-16.81c26.14-11.21,48.92-26.44,68.35-45.72,19.42-19.27,34.74-41.91,45.94-67.9,11.2-26,16.81-53.93,16.81-83.81s-5.6-57.37-16.81-83.36c-11.21-26-26.52-48.78-45.94-68.35-19.43-19.57-42.21-34.96-68.35-46.16-26.15-11.21-54.01-16.81-83.59-16.81Z"/>
      <path class="cls-1" d="m2028.81,400.22h57.37c11.05,0,20.32,3.74,27.79,11.21,7.47,7.47,11.21,16.58,11.21,27.34s-3.74,20.32-11.21,27.79c-7.47,7.47-16.74,11.21-27.79,11.21h-57.37v300.74c0,5.68-.97,10.91-2.91,15.69-1.95,4.78-4.64,8.96-8.07,12.55-3.44,3.59-7.47,6.35-12.1,8.29-4.64,1.95-9.64,2.91-15.01,2.91-10.76,0-19.94-3.73-27.56-11.21-7.62-7.46-11.43-16.88-11.43-28.24v-300.74h-40.34c-5.38,0-10.46-1.04-15.24-3.14-4.78-2.09-8.96-4.93-12.55-8.52-3.59-3.59-6.35-7.69-8.29-12.33-1.95-4.63-2.91-9.64-2.91-15.01,0-10.76,3.73-19.87,11.21-27.34,7.46-7.47,16.73-11.21,27.79-11.21h40.34v-83.81c0-10.76,3.81-19.87,11.43-27.34,7.62-7.47,16.95-11.21,28.01-11.21s19.72,3.74,26.89,11.21c7.17,7.47,10.76,16.58,10.76,27.34v83.81Z"/>
      <path class="cls-1" d="m2299.96,400.22h57.37c11.05,0,20.32,3.74,27.79,11.21,7.47,7.47,11.21,16.58,11.21,27.34s-3.74,20.32-11.21,27.79c-7.47,7.47-16.74,11.21-27.79,11.21h-57.37v300.74c0,5.68-.97,10.91-2.91,15.69-1.95,4.78-4.64,8.96-8.07,12.55-3.44,3.59-7.47,6.35-12.1,8.29-4.64,1.95-9.64,2.91-15.01,2.91-10.76,0-19.94-3.73-27.56-11.21-7.62-7.46-11.43-16.88-11.43-28.24v-300.74h-40.34c-5.38,0-10.46-1.04-15.24-3.14-4.78-2.09-8.96-4.93-12.55-8.52-3.59-3.59-6.35-7.69-8.29-12.33-1.95-4.63-2.91-9.64-2.91-15.01,0-10.76,3.73-19.87,11.21-27.34,7.46-7.47,16.73-11.21,27.79-11.21h40.34v-83.81c0-10.76,3.81-19.87,11.43-27.34,7.62-7.47,16.95-11.21,28.01-11.21s19.72,3.74,26.89,11.21c7.17,7.47,10.76,16.58,10.76,27.34v83.81Z"/>
      <path class="cls-1" d="m2518.67,644.49c2.98,14.94,8.44,28.61,16.36,41.01,7.91,12.4,17.48,23.08,28.68,32.05,11.2,8.96,23.9,15.99,38.1,21.07,14.19,5.08,29.2,7.62,45.04,7.62,18.82,0,36.3-3.14,52.44-9.41,16.13-6.27,29.43-15.24,39.89-26.89,6.87-5.08,13.52-8.14,19.95-9.19,6.42-1.04,12.62-.52,18.6,1.57,3.88,1.5,7.32,3.66,10.31,6.5,2.98,2.84,5.67,6.05,8.07,9.64,5.08,7.47,7.32,15.99,6.72,25.55-.6,9.57-5.38,18.23-14.34,26-7.17,7.17-15.46,14.05-24.88,20.62-9.41,6.58-19.94,12.25-31.6,17.03-11.65,4.78-24.5,8.59-38.54,11.43-14.05,2.84-29.58,4.26-46.61,4.26-29.58,0-57.37-5.6-83.36-16.81-26-11.2-48.71-26.44-68.13-45.72-19.43-19.27-34.74-41.91-45.94-67.9-11.21-26-16.81-53.78-16.81-83.36s5.6-57.37,16.81-83.36c11.2-26,26.51-48.63,45.94-67.9,19.42-19.27,42.13-34.51,68.13-45.72s53.78-16.81,83.36-16.81,56.92,5.53,82.92,16.58c26,11.06,48.7,26.15,68.13,45.27,19.42,19.12,34.81,41.61,46.16,67.45,11.35,25.85,17.18,53.41,17.48,82.69,0,10.76-3.51,19.57-10.53,26.44-7.02,6.88-16.21,10.31-27.56,10.31h-304.77Zm263.54-64.54c-2.69-15.83-8.07-30.25-16.13-43.25-8.07-13-18-24.2-29.81-33.61-11.81-9.41-25.18-16.73-40.11-21.96-14.94-5.22-30.78-7.84-47.51-7.84s-33.02,2.69-47.96,8.07c-14.94,5.38-28.24,12.77-39.89,22.19-11.65,9.41-21.29,20.62-28.91,33.61s-12.77,27.27-15.46,42.8h265.78Z"/>
      <path class="cls-1" d="m2945.35,438.77c0-11.35,2.31-20.54,6.95-27.56,4.63-7.02,12.47-10.53,23.53-10.53,9.56,0,17.4,3.66,23.53,10.98,6.12,7.33,10.98,16.51,14.57,27.56l4.48,40.34c16.13-23.6,36.08-42.58,59.83-56.92,23.75-14.34,51.61-21.51,83.59-21.51h2.24c12.55,0,22.41,3.66,29.58,10.98,7.17,7.33,10.76,16.51,10.76,27.56s-3.96,20.32-11.88,27.79c-7.92,7.47-17.41,11.21-28.46,11.21h-2.24c-19.12,0-36.91,3.66-53.33,10.98-16.44,7.33-30.78,17.26-43.03,29.8-12.26,12.55-22.12,27.34-29.58,44.37-7.47,17.03-11.81,35.11-13,54.23v160.01c0,11.06-3.52,20.47-10.53,28.24-7.02,7.77-16.07,11.65-27.12,11.65s-20.84-3.88-28.46-11.65c-7.62-7.77-11.43-17.18-11.43-28.24v-339.28Z"/>
    </g>
  </g>
</svg>